<svg xmlns="http://www.w3.org/2000/svg" viewBox="0 0 223.96 55"><defs><style>.f{fill:#0071bc} .g{fill:#FFFFFF}</style></defs><g id="b"><g id="c"><g id="d"><path class="f" d="M70.96 51.55c-.02-.28.13-.42.39-.42h1.45c.26 0 .39.15.41.41.1.94.54 1.3 1.59 1.3h3.19c1.24 0 1.68-.31 1.68-1.25s-.42-1.15-1.51-1.24l-3.63-.28c-2.5-.2-3.5-1.01-3.5-3.16s1.06-3.4 3.89-3.4h2.98c2.57 0 3.72 1.15 3.84 3.45.02.28-.13.42-.39.42h-1.46c-.26 0-.39-.15-.41-.41-.1-.94-.54-1.3-1.58-1.3h-2.94c-1.25 0-1.69.29-1.69 1.25 0 .89.42 1.12 1.51 1.2l3.63.28c2.47.2 3.51 1.06 3.51 3.19s-1.06 3.4-3.9 3.4h-3.2c-2.59 0-3.72-1.15-3.84-3.45ZM89.92 54.59v-8.9h-3.51c-.26 0-.41-.15-.41-.41v-1.37c0-.26.15-.41.41-.41h9.29c.26 0 .41.15.41.41v1.37c0 .26-.15.41-.41.41h-3.51v8.9c0 .26-.15.41-.41.41h-1.45c-.26 0-.41-.15-.41-.41ZM100.73 51.05v-7.12c0-.26.15-.41.41-.41h1.45c.26 0 .41.15.41.41v7.21c0 1.4.5 1.71 1.59 1.71h3.66c1.09 0 1.58-.31 1.58-1.71v-7.21c0-.26.15-.41.41-.41h1.46c.26 0 .41.15.41.41v7.12c0 2.42-1.17 3.95-3.85 3.95h-3.66c-2.7 0-3.85-1.53-3.85-3.95ZM117.47 54.59V43.92c0-.26.15-.41.41-.41h6.98c2.68 0 3.84 1.43 3.84 4.31v2.93c0 2.86-1.15 4.25-3.84 4.25h-6.98c-.26 0-.41-.15-.41-.41Zm7.12-1.74c1.24 0 1.87-.34 1.87-2.13v-2.88c0-1.79-.6-2.16-1.87-2.16h-4.86v7.17h4.86ZM133.78 54.59V43.92c0-.26.15-.41.41-.41h1.43c.26 0 .41.15.41.41v10.67c0 .26-.15.41-.41.41h-1.43c-.26 0-.41-.15-.41-.41ZM141.12 51.05v-3.56c0-2.44 1.15-3.97 3.85-3.97h4.18c2.7 0 3.85 1.53 3.85 3.97v3.56c0 2.42-1.15 3.95-3.85 3.95h-4.18c-2.7 0-3.85-1.53-3.85-3.95Zm8.04 1.79c1.09 0 1.59-.31 1.59-1.71V47.4c0-1.41-.46-1.72-1.59-1.72h-4.18c-1.12 0-1.59.31-1.59 1.72v3.73c0 1.4.5 1.71 1.59 1.71h4.18Z"/></g><g id="e"><path class="g" d="M0 22.59V11.91C0 4.88 3.76 0 11.56 0h12.83c7.81 0 11.56 4.88 11.56 11.91V22.6c0 6.98-3.76 11.86-11.56 11.86H11.56C3.76 34.45 0 29.57 0 22.59Zm24.4 3.56c1.71 0 2.88-.34 2.88-3.27V11.61c0-2.98-1.02-3.32-2.88-3.32H11.56c-1.85 0-2.88.34-2.88 3.32v11.27c0 2.93 1.17 3.27 2.88 3.27h12.83ZM41.47 32.99V1.46c0-.93.54-1.46 1.46-1.46h6.98c.78 0 1.37.29 1.76.98l10.54 17.71L72.7.98c.39-.68.98-.98 1.76-.98h6.98c.93 0 1.46.54 1.46 1.46v31.52c0 .93-.54 1.46-1.46 1.46h-5.71c-.93 0-1.46-.54-1.46-1.46V13.71l-8.64 14.3c-.39.68-.98.98-1.76.98h-3.42c-.78 0-1.37-.29-1.76-.98L50.1 13.86v19.13c0 .93-.54 1.46-1.46 1.46h-5.71c-.93 0-1.46-.54-1.46-1.46ZM89.05 32.99V1.46c0-.93.54-1.46 1.46-1.46h5.61c.78 0 1.32.29 1.81.88l15.86 20.25V1.46c0-.93.54-1.46 1.46-1.46h5.76c.93 0 1.46.54 1.46 1.46v31.52c0 .93-.54 1.46-1.46 1.46h-5.61c-.78 0-1.32-.29-1.81-.88L97.73 13.41v19.57c0 .93-.54 1.46-1.46 1.46h-5.76c-.93 0-1.46-.54-1.46-1.46ZM128.62 32.99V1.46c0-.93.54-1.46 1.46-1.46h5.71c.93 0 1.46.54 1.46 1.46v31.52c0 .93-.54 1.46-1.46 1.46h-5.71c-.93 0-1.46-.54-1.46-1.46ZM143.4 32.99V1.46c0-.93.54-1.46 1.46-1.46h25.42c.93 0 1.46.54 1.46 1.46v5.37c0 .93-.54 1.46-1.46 1.46h-18.25v5.07h10.98c.93 0 1.46.54 1.46 1.46v4.59c0 .93-.54 1.46-1.46 1.46h-10.98v12.1c0 .93-.54 1.46-1.46 1.46h-5.71c-.93 0-1.46-.54-1.46-1.46ZM175.8 32.99V1.46c0-.93.54-1.46 1.46-1.46h5.71c.93 0 1.46.54 1.46 1.46v31.52c0 .93-.54 1.46-1.46 1.46h-5.71c-.93 0-1.46-.54-1.46-1.46ZM189.95 22.59V11.91c0-7.03 3.76-11.91 11.56-11.91h10.88c7.81 0 11.56 4.88 11.56 11.91 0 .88-.54 1.37-1.46 1.37h-5.76c-.93 0-1.46-.29-1.46-.83v-.83c0-2.98-1.02-3.32-2.88-3.32h-10.88c-1.85 0-2.88.34-2.88 3.32v11.27c0 2.93 1.17 3.27 2.88 3.27h10.88c1.71 0 2.88-.34 2.88-3.27v-.73c0-.93.54-1.46 1.46-1.46h5.76c.93 0 1.46.34 1.46.93v.98c0 6.98-3.76 11.86-11.56 11.86h-10.88c-7.81 0-11.56-4.88-11.56-11.86Z"/></g></g></g></svg>